<?xml version="1.0" encoding="utf-8"?>
<!-- Generator: Adobe Illustrator 24.1.1, SVG Export Plug-In . SVG Version: 6.00 Build 0)  -->
<svg version="1.1" id="Layer_1" xmlns="http://www.w3.org/2000/svg" xmlns:xlink="http://www.w3.org/1999/xlink" x="0px" y="0px"
	 viewBox="0 0 256 199" style="enable-background:new 0 0 256 199;" xml:space="preserve">
<style type="text/css">
	.st0{fill:url(#SVGID_1_);}
	.st1{opacity:0.5;fill:url(#SVGID_2_);}
	.st2{opacity:0.5;fill:url(#SVGID_3_);}
	.st3{opacity:0.2;fill:url(#SVGID_4_);}
	.st4{opacity:0.2;fill:url(#SVGID_5_);}
	.st5{opacity:0.3;fill:url(#SVGID_6_);}
	.st6{fill:url(#SVGID_7_);}
	.st7{fill:url(#SVGID_8_);}
	.st8{opacity:0.3;fill:url(#SVGID_9_);}
	.st9{fill:#FFFFFF;}
	.st10{fill:url(#SVGID_10_);}
</style>
<g>
	<g>
		
			<radialGradient id="SVGID_1_" cx="885.7036" cy="463.6757" r="134.397" gradientTransform="matrix(0.952 -0.3061 0.3061 0.952 -898.0354 -93.475)" gradientUnits="userSpaceOnUse">
			<stop  offset="0" style="stop-color:#5AC0A5"/>
			<stop  offset="0.5" style="stop-color:#1D9FB9"/>
			<stop  offset="1" style="stop-color:#1B487B"/>
		</radialGradient>
		<circle class="st0" cx="133.07" cy="100.58" r="93.6"/>
		
			<radialGradient id="SVGID_2_" cx="918.4611" cy="500.6835" r="73.7813" gradientTransform="matrix(0.952 -0.3061 0.3061 0.952 -898.0354 -93.475)" gradientUnits="userSpaceOnUse">
			<stop  offset="0" style="stop-color:#FFFFFF"/>
			<stop  offset="1" style="stop-color:#FFFFFF;stop-opacity:0"/>
		</radialGradient>
		<path class="st1" d="M159.89,14.47C112.7,73.6,95.83,115.21,92.86,181.51c0,0-49.37-23.81-49.27-80.47
			C43.68,44.37,100.53-1.38,159.89,14.47z"/>
		
			<radialGradient id="SVGID_3_" cx="842.5771" cy="450.4256" r="54.6256" gradientTransform="matrix(0.952 -0.3061 0.3061 0.952 -898.0354 -93.475)" gradientUnits="userSpaceOnUse">
			<stop  offset="0" style="stop-color:#FFFFFF"/>
			<stop  offset="1" style="stop-color:#FFFFFF;stop-opacity:0"/>
		</radialGradient>
		<path class="st2" d="M105.66,95.17c-6.05,27.42-23.71,46.85-39.41,43.38c-15.71-3.47-23.54-28.53-17.48-55.95
			c6.06-27.42,23.71-46.85,39.42-43.38C103.89,42.69,111.72,67.74,105.66,95.17z"/>
		
			<radialGradient id="SVGID_4_" cx="2678.8298" cy="2723.1909" r="54.6244" gradientTransform="matrix(2.6401 -0.1394 1.192 1.5008 -10289.6855 -3639.9802)" gradientUnits="userSpaceOnUse">
			<stop  offset="0" style="stop-color:#FFFFFF"/>
			<stop  offset="1" style="stop-color:#FFFFFF;stop-opacity:0"/>
		</radialGradient>
		<path class="st3" d="M217.9,120.46c-8.45,38.37-52.93,61.18-99.26,50.95c-46.36-10.24-77.07-49.66-68.6-88.03
			c8.5-38.37,52.94-61.19,99.29-50.95C195.66,42.67,226.37,82.08,217.9,120.46z"/>
		
			<radialGradient id="SVGID_5_" cx="2550.2673" cy="8643.2832" r="54.6243" gradientTransform="matrix(-2.6401 0.1394 -1.192 -1.5008 17278.5938 12749.4678)" gradientUnits="userSpaceOnUse">
			<stop  offset="0" style="stop-color:#FFFFFF"/>
			<stop  offset="1" style="stop-color:#FFFFFF;stop-opacity:0"/>
		</radialGradient>
		<path class="st4" d="M53.87,86.28c8.46-38.37,52.93-61.18,99.26-50.95c46.35,10.23,77.07,49.66,68.6,88.03
			c-8.5,38.37-52.94,61.18-99.3,50.95C76.1,164.08,45.39,124.66,53.87,86.28z"/>
		
			<linearGradient id="SVGID_6_" gradientUnits="userSpaceOnUse" x1="2033.8154" y1="9539.7969" x2="2105.6582" y2="9539.7969" gradientTransform="matrix(-2.5978 -0.0522 -1.2644 -1.1727 17576.2715 11402.6709)">
			<stop  offset="0" style="stop-color:#00B2E3"/>
			<stop  offset="0.0896" style="stop-color:#00B2E3;stop-opacity:0.9104"/>
			<stop  offset="1" style="stop-color:#00B2E3;stop-opacity:0"/>
		</linearGradient>
		<path class="st5" d="M53.23,89.16c6.1-27.7,48.66-41.86,95-31.63c46.35,10.23,78.98,41.01,72.87,68.71
			c-6.14,27.7-48.67,41.86-95.03,31.63C79.73,147.63,47.11,116.87,53.23,89.16z"/>
		
			<linearGradient id="SVGID_7_" gradientUnits="userSpaceOnUse" x1="4325.6157" y1="11189.7266" x2="4315.1816" y2="11112.8857" gradientTransform="matrix(-0.952 0.3061 -0.3061 -0.952 7631.7729 9324.7852)">
			<stop  offset="0" style="stop-color:#0E2941"/>
			<stop  offset="0.1115" style="stop-color:#0B4B69;stop-opacity:0.8885"/>
			<stop  offset="0.236" style="stop-color:#076A8E;stop-opacity:0.764"/>
			<stop  offset="0.3665" style="stop-color:#0584AD;stop-opacity:0.6335"/>
			<stop  offset="0.5026" style="stop-color:#0399C5;stop-opacity:0.4974"/>
			<stop  offset="0.6466" style="stop-color:#01A7D6;stop-opacity:0.3534"/>
			<stop  offset="0.804" style="stop-color:#00AFE0;stop-opacity:0.196"/>
			<stop  offset="1" style="stop-color:#00B2E3;stop-opacity:0"/>
		</linearGradient>
		<path class="st6" d="M45.31,100.13C34.93,67.83,62.7,30.02,107.33,15.67c44.64-14.35,89.25,0.19,99.63,32.49
			c10.38,32.3-17.38,70.11-62.03,84.47C100.3,146.97,55.69,132.43,45.31,100.13z"/>
		
			<linearGradient id="SVGID_8_" gradientUnits="userSpaceOnUse" x1="934.2213" y1="633.1075" x2="924.1118" y2="558.6562" gradientTransform="matrix(0.952 -0.3061 0.3061 0.952 -903.624 -113.3779)">
			<stop  offset="0" style="stop-color:#0E2941"/>
			<stop  offset="0.1115" style="stop-color:#0B4B69;stop-opacity:0.8885"/>
			<stop  offset="0.236" style="stop-color:#076A8E;stop-opacity:0.764"/>
			<stop  offset="0.3665" style="stop-color:#0584AD;stop-opacity:0.6335"/>
			<stop  offset="0.5026" style="stop-color:#0399C5;stop-opacity:0.4974"/>
			<stop  offset="0.6466" style="stop-color:#01A7D6;stop-opacity:0.3534"/>
			<stop  offset="0.804" style="stop-color:#00AFE0;stop-opacity:0.196"/>
			<stop  offset="1" style="stop-color:#00B2E3;stop-opacity:0"/>
		</linearGradient>
		<path class="st7" d="M221.69,102.58c10.06,31.29-16.85,67.93-60.1,81.84c-43.25,13.91-86.47-0.19-96.53-31.48
			C55,121.65,81.91,85.01,125.16,71.11C168.41,57.2,211.63,71.29,221.69,102.58z"/>
		
			<linearGradient id="SVGID_9_" gradientUnits="userSpaceOnUse" x1="858.1507" y1="446.4349" x2="849.1932" y2="471.4067" gradientTransform="matrix(0.952 -0.3061 0.3061 0.952 -898.0354 -93.475)">
			<stop  offset="0" style="stop-color:#FCFDFF;stop-opacity:0"/>
			<stop  offset="0.9104" style="stop-color:#FCFDFF;stop-opacity:0.9104"/>
			<stop  offset="1" style="stop-color:#FCFDFF"/>
		</linearGradient>
		<path class="st8" d="M50.56,85.78c-1.35,6.17-0.47,11.61,1.97,12.15c2.44,0.54,5.51-4.04,6.87-10.21
			c1.35-6.17,0.47-11.61-1.96-12.15C54.99,75.03,51.92,79.6,50.56,85.78z"/>
	</g>
	<g>
		<g>
			<g>
				<path class="st9" d="M98.83,77.43H62.4h-0.33c-4.56,0.04-8.7,1.83-11.81,4.71l-0.03-0.03c-4.3,3.99-9.11,7.45-14.32,10.25
					c-8.93,4.8-19.04,7.69-29.78,8.15c11.5,4.26,23.94,6.6,36.93,6.6c1.58,0,3.15-0.05,4.71-0.12c0.48-0.02,0.96-0.04,1.44-0.07
					c8.52-0.49,16.78-1.98,24.65-4.36c0.14-0.04,0.28-0.08,0.42-0.12c1.63-0.51,3.19-1.17,4.72-1.89c1.87-0.88,3.66-1.9,5.34-3.07
					c2.72-1.89,5.18-4.13,7.31-6.66c1.85-2.2,4.8-7.18,4.8-7.18c1.26-2.16,3.12-3.92,5.39-5c1.62-0.78,3.43-1.22,5.35-1.22
					C107.31,77.43,98.83,77.43,98.83,77.43z"/>
			</g>
		</g>
		<g>
			<linearGradient id="SVGID_10_" gradientUnits="userSpaceOnUse" x1="158.0096" y1="62.0119" x2="163.078" y2="115.976">
				<stop  offset="4.468864e-03" style="stop-color:#6B6C6F"/>
				<stop  offset="1" style="stop-color:#FFFFFF"/>
			</linearGradient>
			<path class="st10" d="M217.74,115.84h-19.78v-0.02c-0.27,0-0.54,0.02-0.81,0.02c-29.22,0-55.65-11.78-74.93-30.79l-0.01,0.03
				l-0.03-0.01c0.01,0,0.04-0.02,0.04-0.02l-3.45-3.18l-0.01,0.01c-3-2.75-6.99-4.45-11.38-4.45c-0.08,0-0.29,0-0.3,0
				c0.01,0,0.02,0,0.03,0c0,0,0,0,0,0c0.05,0,0.08,0,0.07,0c-0.47,0-0.92,0.03-1.37,0.08c-0.01,0-0.03,0-0.04,0
				c-0.18,0.02-0.47,0.06-0.64,0.09c-0.38,0.06-0.74,0.15-1.11,0.24c-0.3,0.08-0.49,0.15-0.78,0.24c-0.19,0.06-0.39,0.13-0.57,0.2
				c-0.28,0.11-0.55,0.23-0.82,0.36c-2.27,1.08-4.13,2.84-5.39,5c0,0-2.95,4.98-4.8,7.18c-2.13,2.53-4.59,4.77-7.31,6.66
				c-0.13,0.09-0.27,0.19-0.41,0.28c0.15,0.25,0.28,0.47,0.41,0.73c1.41,2.72,2.22,5.8,2.22,9.07c0,6.69-3.34,12.6-8.44,16.16
				h107.86h11.98h19.78h31.76C240.02,118.7,229.22,115.84,217.74,115.84z"/>
		</g>
	</g>
</g>
</svg>
